<svg xmlns="http://www.w3.org/2000/svg" xmlns:xlink="http://www.w3.org/1999/xlink" contentStyleType="text/css" data-diagram-type="MINDMAP" height="791px" preserveAspectRatio="none" style="width:3591px;height:791px;background:#FFFFFF;" version="1.1" viewBox="0 0 3591 791" width="3591px" zoomAndPan="magnify"><title>Veritas Juris - Mapa Mental de ideias</title><defs/><g><text fill="#000000" font-family="sans-serif" font-size="14" font-weight="bold" lengthAdjust="spacing" textLength="290.3633" x="1649.1978" y="32.9951">Veritas Juris - Mapa Mental de ideias</text><rect fill="#F1F1F1" height="36.2969" rx="12.5" ry="12.5" style="stroke:#181818;stroke-width:1.5;" width="577.4639" x="1784.5615" y="395.0781"/><text fill="#000000" font-family="sans-serif" font-size="14" font-weight="bold" lengthAdjust="spacing" textLength="557.4639" x="1794.5615" y="418.0732">VERITAS JURIS - An&#225;lise Preditiva de Jurisprud&#234;ncia com IA Generativa</text><rect fill="#F1F1F1" height="36.2969" rx="12.5" ry="12.5" style="stroke:#181818;stroke-width:1.5;" width="198.7803" x="2412.0254" y="310.6328"/><text fill="#000000" font-family="sans-serif" font-size="14" font-weight="bold" lengthAdjust="spacing" textLength="178.7803" x="2422.0254" y="333.6279">I. PROBLEMA CENTRAL</text><rect fill="#F1F1F1" height="36.2969" rx="12.5" ry="12.5" style="stroke:#181818;stroke-width:1.5;" width="464.9238" x="2660.8057" y="169.8906"/><text fill="#000000" font-family="sans-serif" font-size="14" lengthAdjust="spacing" textLength="444.9238" x="2670.8057" y="192.8857">1.1. Complexidade e Morosidade na Pesquisa de Jurisprud&#234;ncia</text><rect fill="#F1F1F1" height="36.2969" rx="12.5" ry="12.5" style="stroke:#181818;stroke-width:1.5;" width="304.1973" x="3175.7295" y="113.5938"/><text fill="#000000" font-family="sans-serif" font-size="14" lengthAdjust="spacing" textLength="284.1973" x="3185.7295" y="136.5889">1.1.1. Grande volume de dados jur&#237;dicos</text><path d="M3125.7295,188.0391 L3135.7295,188.0391 C3150.7295,188.0391 3150.7295,131.7422 3165.7295,131.7422 L3175.7295,131.7422" fill="none" style="stroke:#181818;stroke-width:1;"/><rect fill="#F1F1F1" height="36.2969" rx="12.5" ry="12.5" style="stroke:#181818;stroke-width:1.5;" width="283.5186" x="3175.7295" y="169.8906"/><text fill="#000000" font-family="sans-serif" font-size="14" lengthAdjust="spacing" textLength="263.5186" x="3185.7295" y="192.8857">1.1.2. Linguagem t&#233;cnica e complexa</text><path d="M3125.7295,188.0391 L3135.7295,188.0391 C3150.7295,188.0391 3150.7295,188.0391 3165.7295,188.0391 L3175.7295,188.0391" fill="none" style="stroke:#181818;stroke-width:1;"/><rect fill="#F1F1F1" height="36.2969" rx="12.5" ry="12.5" style="stroke:#181818;stroke-width:1.5;" width="404.0293" x="3175.7295" y="226.1875"/><text fill="#000000" font-family="sans-serif" font-size="14" lengthAdjust="spacing" textLength="384.0293" x="3185.7295" y="249.1826">1.1.3. Processo manual ineficiente e propenso a falhas</text><path d="M3125.7295,188.0391 L3135.7295,188.0391 C3150.7295,188.0391 3150.7295,244.3359 3165.7295,244.3359 L3175.7295,244.3359" fill="none" style="stroke:#181818;stroke-width:1;"/><path d="M2610.8057,328.7813 L2620.8057,328.7813 C2635.8057,328.7813 2635.8057,188.0391 2650.8057,188.0391 L2660.8057,188.0391" fill="none" style="stroke:#181818;stroke-width:1;"/><rect fill="#F1F1F1" height="36.2969" rx="12.5" ry="12.5" style="stroke:#181818;stroke-width:1.5;" width="172.5029" x="2660.8057" y="310.6328"/><text fill="#000000" font-family="sans-serif" font-size="14" lengthAdjust="spacing" textLength="152.5029" x="2670.8057" y="333.6279">1.2. Impacto Principal</text><rect fill="#F1F1F1" height="36.2969" rx="12.5" ry="12.5" style="stroke:#181818;stroke-width:1.5;" width="472.5664" x="2883.3086" y="282.4844"/><text fill="#000000" font-family="sans-serif" font-size="14" lengthAdjust="spacing" textLength="452.5664" x="2893.3086" y="305.4795">1.2.1. Estagi&#225;rios e Jovens Advogados (alto disp&#234;ndio de tempo)</text><path d="M2833.3086,328.7813 L2843.3086,328.7813 C2858.3086,328.7813 2858.3086,300.6328 2873.3086,300.6328 L2883.3086,300.6328" fill="none" style="stroke:#181818;stroke-width:1;"/><rect fill="#F1F1F1" height="36.2969" rx="12.5" ry="12.5" style="stroke:#181818;stroke-width:1.5;" width="422.6709" x="2883.3086" y="338.7813"/><text fill="#000000" font-family="sans-serif" font-size="14" lengthAdjust="spacing" textLength="402.6709" x="2893.3086" y="361.7764">1.2.2. Escrit&#243;rios (custos, efici&#234;ncia, qualidade das teses)</text><path d="M2833.3086,328.7813 L2843.3086,328.7813 C2858.3086,328.7813 2858.3086,356.9297 2873.3086,356.9297 L2883.3086,356.9297" fill="none" style="stroke:#181818;stroke-width:1;"/><path d="M2610.8057,328.7813 L2620.8057,328.7813 C2635.8057,328.7813 2635.8057,328.7813 2650.8057,328.7813 L2660.8057,328.7813" fill="none" style="stroke:#181818;stroke-width:1;"/><rect fill="#F1F1F1" height="36.2969" rx="12.5" ry="12.5" style="stroke:#181818;stroke-width:1.5;" width="156.9922" x="2660.8057" y="451.375"/><text fill="#000000" font-family="sans-serif" font-size="14" lengthAdjust="spacing" textLength="136.9922" x="2670.8057" y="474.3701">1.3. Consequ&#234;ncias</text><rect fill="#F1F1F1" height="36.2969" rx="12.5" ry="12.5" style="stroke:#181818;stroke-width:1.5;" width="274.0986" x="2867.7979" y="395.0781"/><text fill="#000000" font-family="sans-serif" font-size="14" lengthAdjust="spacing" textLength="254.0986" x="2877.7979" y="418.0732">1.3.1. Inefici&#234;ncia e custos elevados</text><path d="M2817.7979,469.5234 L2827.7979,469.5234 C2842.7979,469.5234 2842.7979,413.2266 2857.7979,413.2266 L2867.7979,413.2266" fill="none" style="stroke:#181818;stroke-width:1;"/><rect fill="#F1F1F1" height="36.2969" rx="12.5" ry="12.5" style="stroke:#181818;stroke-width:1.5;" width="353.4639" x="2867.7979" y="451.375"/><text fill="#000000" font-family="sans-serif" font-size="14" lengthAdjust="spacing" textLength="333.4639" x="2877.7979" y="474.3701">1.3.2. Risco de omiss&#227;o de informa&#231;&#245;es cr&#237;ticas</text><path d="M2817.7979,469.5234 L2827.7979,469.5234 C2842.7979,469.5234 2842.7979,469.5234 2857.7979,469.5234 L2867.7979,469.5234" fill="none" style="stroke:#181818;stroke-width:1;"/><rect fill="#F1F1F1" height="36.2969" rx="12.5" ry="12.5" style="stroke:#181818;stroke-width:1.5;" width="418.9316" x="2867.7979" y="507.6719"/><text fill="#000000" font-family="sans-serif" font-size="14" lengthAdjust="spacing" textLength="398.9316" x="2877.7979" y="530.667">1.3.3. Dificuldade na formula&#231;&#227;o de estrat&#233;gias robustas</text><path d="M2817.7979,469.5234 L2827.7979,469.5234 C2842.7979,469.5234 2842.7979,525.8203 2857.7979,525.8203 L2867.7979,525.8203" fill="none" style="stroke:#181818;stroke-width:1;"/><path d="M2610.8057,328.7813 L2620.8057,328.7813 C2635.8057,328.7813 2635.8057,469.5234 2650.8057,469.5234 L2660.8057,469.5234" fill="none" style="stroke:#181818;stroke-width:1;"/><path d="M2362.0254,413.2266 L2372.0254,413.2266 C2387.0254,413.2266 2387.0254,328.7813 2402.0254,328.7813 L2412.0254,328.7813" fill="none" style="stroke:#181818;stroke-width:1;"/><rect fill="#F1F1F1" height="36.2969" rx="12.5" ry="12.5" style="stroke:#181818;stroke-width:1.5;" width="245.8594" x="2412.0254" y="620.2656"/><text fill="#000000" font-family="sans-serif" font-size="14" font-weight="bold" lengthAdjust="spacing" textLength="225.8594" x="2422.0254" y="643.2607">II. P&#218;BLICO-ALVO PRINCIPAL</text><rect fill="#F1F1F1" height="36.2969" rx="12.5" ry="12.5" style="stroke:#181818;stroke-width:1.5;" width="201.6172" x="2707.8848" y="563.9688"/><text fill="#000000" font-family="sans-serif" font-size="14" lengthAdjust="spacing" textLength="181.6172" x="2717.8848" y="586.9639">3.1. Estagi&#225;rios de Direito</text><path d="M2657.8848,638.4141 L2667.8848,638.4141 C2682.8848,638.4141 2682.8848,582.1172 2697.8848,582.1172 L2707.8848,582.1172" fill="none" style="stroke:#181818;stroke-width:1;"/><rect fill="#F1F1F1" height="36.2969" rx="12.5" ry="12.5" style="stroke:#181818;stroke-width:1.5;" width="178.9014" x="2707.8848" y="620.2656"/><text fill="#000000" font-family="sans-serif" font-size="14" lengthAdjust="spacing" textLength="158.9014" x="2717.8848" y="643.2607">3.2. Jovens Advogados</text><path d="M2657.8848,638.4141 L2667.8848,638.4141 C2682.8848,638.4141 2682.8848,638.4141 2697.8848,638.4141 L2707.8848,638.4141" fill="none" style="stroke:#181818;stroke-width:1;"/><rect fill="#F1F1F1" height="36.2969" rx="12.5" ry="12.5" style="stroke:#181818;stroke-width:1.5;" width="512.7344" x="2707.8848" y="676.5625"/><text fill="#000000" font-family="sans-serif" font-size="14" lengthAdjust="spacing" textLength="492.7344" x="2717.8848" y="699.5576">3.3. (Secund&#225;rio) Advogados experientes, pesquisadores, acad&#234;micos</text><path d="M2657.8848,638.4141 L2667.8848,638.4141 C2682.8848,638.4141 2682.8848,694.7109 2697.8848,694.7109 L2707.8848,694.7109" fill="none" style="stroke:#181818;stroke-width:1;"/><path d="M2362.0254,413.2266 L2372.0254,413.2266 C2387.0254,413.2266 2387.0254,638.4141 2402.0254,638.4141 L2412.0254,638.4141" fill="none" style="stroke:#181818;stroke-width:1;"/><rect fill="#F1F1F1" height="36.2969" rx="12.5" ry="12.5" style="stroke:#181818;stroke-width:1.5;" width="336.4014" x="1398.1602" y="282.4844"/><text fill="#000000" font-family="sans-serif" font-size="14" font-weight="bold" lengthAdjust="spacing" textLength="316.4014" x="1408.1602" y="305.4795">III. SOLU&#199;&#195;O PROPOSTA: VERITAS JURIS</text><rect fill="#F1F1F1" height="36.2969" rx="12.5" ry="12.5" style="stroke:#181818;stroke-width:1.5;" width="292.1455" x="1056.0146" y="282.4844"/><text fill="#000000" font-family="sans-serif" font-size="14" lengthAdjust="spacing" textLength="272.1455" x="1066.0146" y="305.4795">2.1. Software com IA Generativa e PLN</text><rect fill="#F1F1F1" height="36.2969" rx="12.5" ry="12.5" style="stroke:#181818;stroke-width:1.5;" width="543.3457" x="462.6689" y="57.2969"/><text fill="#000000" font-family="sans-serif" font-size="14" lengthAdjust="spacing" textLength="523.3457" x="472.6689" y="80.292">2.1.1. Ingest&#227;o e Processamento de Dados Jur&#237;dicos (ac&#243;rd&#227;os, senten&#231;as)</text><path d="M1056.0146,300.6328 L1046.0146,300.6328 C1031.0146,300.6328 1031.0146,75.4453 1016.0146,75.4453 L1006.0146,75.4453" fill="none" style="stroke:#181818;stroke-width:1;"/><rect fill="#F1F1F1" height="36.2969" rx="12.5" ry="12.5" style="stroke:#181818;stroke-width:1.5;" width="287.8799" x="718.1348" y="169.8906"/><text fill="#000000" font-family="sans-serif" font-size="14" lengthAdjust="spacing" textLength="267.8799" x="728.1348" y="192.8857">2.1.2. An&#225;lise Contextual e Sem&#226;ntica</text><rect fill="#F1F1F1" height="36.2969" rx="12.5" ry="12.5" style="stroke:#181818;stroke-width:1.5;" width="313.0635" x="355.0713" y="113.5938"/><text fill="#000000" font-family="sans-serif" font-size="14" lengthAdjust="spacing" textLength="293.0635" x="365.0713" y="136.5889">2.1.2.1. Identifica&#231;&#227;o de _ratio decidendi_</text><path d="M718.1348,188.0391 L708.1348,188.0391 C693.1348,188.0391 693.1348,131.7422 678.1348,131.7422 L668.1348,131.7422" fill="none" style="stroke:#181818;stroke-width:1;"/><rect fill="#F1F1F1" height="36.2969" rx="12.5" ry="12.5" style="stroke:#181818;stroke-width:1.5;" width="424.9131" x="243.2217" y="169.8906"/><text fill="#000000" font-family="sans-serif" font-size="14" lengthAdjust="spacing" textLength="404.9131" x="253.2217" y="192.8857">2.1.2.2. Argumentos fortes, teses vencedoras/perdedoras</text><path d="M718.1348,188.0391 L708.1348,188.0391 C693.1348,188.0391 693.1348,188.0391 678.1348,188.0391 L668.1348,188.0391" fill="none" style="stroke:#181818;stroke-width:1;"/><rect fill="#F1F1F1" height="36.2969" rx="12.5" ry="12.5" style="stroke:#181818;stroke-width:1.5;" width="313.583" x="354.5518" y="226.1875"/><text fill="#000000" font-family="sans-serif" font-size="14" lengthAdjust="spacing" textLength="293.583" x="364.5518" y="249.1826">2.1.2.3. An&#225;lise de sentimento/polaridade</text><path d="M718.1348,188.0391 L708.1348,188.0391 C693.1348,188.0391 693.1348,244.3359 678.1348,244.3359 L668.1348,244.3359" fill="none" style="stroke:#181818;stroke-width:1;"/><path d="M1056.0146,300.6328 L1046.0146,300.6328 C1031.0146,300.6328 1031.0146,188.0391 1016.0146,188.0391 L1006.0146,188.0391" fill="none" style="stroke:#181818;stroke-width:1;"/><rect fill="#F1F1F1" height="36.2969" rx="12.5" ry="12.5" style="stroke:#181818;stroke-width:1.5;" width="392.0049" x="614.0098" y="310.6328"/><text fill="#000000" font-family="sans-serif" font-size="14" lengthAdjust="spacing" textLength="372.0049" x="624.0098" y="333.6279">2.1.3. Gera&#231;&#227;o de Insights e Sumariza&#231;&#227;o Inteligente</text><rect fill="#F1F1F1" height="36.2969" rx="12.5" ry="12.5" style="stroke:#181818;stroke-width:1.5;" width="299.207" x="264.8027" y="282.4844"/><text fill="#000000" font-family="sans-serif" font-size="14" lengthAdjust="spacing" textLength="279.207" x="274.8027" y="305.4795">2.1.3.1. Sum&#225;rios concisos e relevantes</text><path d="M614.0098,328.7813 L604.0098,328.7813 C589.0098,328.7813 589.0098,300.6328 574.0098,300.6328 L564.0098,300.6328" fill="none" style="stroke:#181818;stroke-width:1;"/><rect fill="#F1F1F1" height="36.2969" rx="12.5" ry="12.5" style="stroke:#181818;stroke-width:1.5;" width="480.9883" x="83.0215" y="338.7813"/><text fill="#000000" font-family="sans-serif" font-size="14" lengthAdjust="spacing" textLength="460.9883" x="93.0215" y="361.7764">2.1.3.2. Respostas a perguntas espec&#237;ficas sobre a jurisprud&#234;ncia</text><path d="M614.0098,328.7813 L604.0098,328.7813 C589.0098,328.7813 589.0098,356.9297 574.0098,356.9297 L564.0098,356.9297" fill="none" style="stroke:#181818;stroke-width:1;"/><path d="M1056.0146,300.6328 L1046.0146,300.6328 C1031.0146,300.6328 1031.0146,328.7813 1016.0146,328.7813 L1006.0146,328.7813" fill="none" style="stroke:#181818;stroke-width:1;"/><rect fill="#F1F1F1" height="36.2969" rx="12.5" ry="12.5" style="stroke:#181818;stroke-width:1.5;" width="407.8232" x="598.1914" y="423.2266"/><text fill="#000000" font-family="sans-serif" font-size="14" lengthAdjust="spacing" textLength="387.8232" x="608.1914" y="446.2217">2.1.4. Identifica&#231;&#227;o de Tend&#234;ncias e Padr&#245;es Preditivos</text><rect fill="#F1F1F1" height="36.2969" rx="12.5" ry="12.5" style="stroke:#181818;stroke-width:1.5;" width="538.1914" x="10" y="395.0781"/><text fill="#000000" font-family="sans-serif" font-size="14" lengthAdjust="spacing" textLength="518.1914" x="20" y="418.0732">2.1.4.1. "Previs&#227;o" de poss&#237;veis resultados (baseado em dados hist&#243;ricos)</text><path d="M598.1914,441.375 L588.1914,441.375 C573.1914,441.375 573.1914,413.2266 558.1914,413.2266 L548.1914,413.2266" fill="none" style="stroke:#181818;stroke-width:1;"/><rect fill="#F1F1F1" height="36.2969" rx="12.5" ry="12.5" style="stroke:#181818;stroke-width:1.5;" width="434.8936" x="113.2979" y="451.375"/><text fill="#000000" font-family="sans-serif" font-size="14" lengthAdjust="spacing" textLength="414.8936" x="123.2979" y="474.3701">2.1.4.2. Mapeamento da evolu&#231;&#227;o do julgamento de temas</text><path d="M598.1914,441.375 L588.1914,441.375 C573.1914,441.375 573.1914,469.5234 558.1914,469.5234 L548.1914,469.5234" fill="none" style="stroke:#181818;stroke-width:1;"/><path d="M1056.0146,300.6328 L1046.0146,300.6328 C1031.0146,300.6328 1031.0146,441.375 1016.0146,441.375 L1006.0146,441.375" fill="none" style="stroke:#181818;stroke-width:1;"/><rect fill="#F1F1F1" height="36.2969" rx="12.5" ry="12.5" style="stroke:#181818;stroke-width:1.5;" width="481.4053" x="524.6094" y="507.6719"/><text fill="#000000" font-family="sans-serif" font-size="14" lengthAdjust="spacing" textLength="461.4053" x="534.6094" y="530.667">2.1.5. Identifica&#231;&#227;o de Inconsist&#234;ncias (Distinguishing/Overruling)</text><rect fill="#F1F1F1" height="36.2969" rx="12.5" ry="12.5" style="stroke:#181818;stroke-width:1.5;" width="440.3965" x="34.2129" y="507.6719"/><text fill="#000000" font-family="sans-serif" font-size="14" lengthAdjust="spacing" textLength="420.3965" x="44.2129" y="530.667">2.1.5.1. Apontar diverg&#234;ncias e supera&#231;&#245;es jurisprudenciais</text><path d="M524.6094,525.8203 L514.6094,525.8203 C499.6094,525.8203 499.6094,525.8203 484.6094,525.8203 L474.6094,525.8203" fill="none" style="stroke:#181818;stroke-width:1;"/><path d="M1056.0146,300.6328 L1046.0146,300.6328 C1031.0146,300.6328 1031.0146,525.8203 1016.0146,525.8203 L1006.0146,525.8203" fill="none" style="stroke:#181818;stroke-width:1;"/><path d="M1398.1602,300.6328 L1388.1602,300.6328 C1373.1602,300.6328 1373.1602,300.6328 1358.1602,300.6328 L1348.1602,300.6328" fill="none" style="stroke:#181818;stroke-width:1;"/><path d="M1784.5615,413.2266 L1774.5615,413.2266 C1759.5615,413.2266 1759.5615,300.6328 1744.5615,300.6328 L1734.5615,300.6328" fill="none" style="stroke:#181818;stroke-width:1;"/><rect fill="#F1F1F1" height="36.2969" rx="12.5" ry="12.5" style="stroke:#181818;stroke-width:1.5;" width="207.6807" x="1526.8809" y="648.4141"/><text fill="#000000" font-family="sans-serif" font-size="14" font-weight="bold" lengthAdjust="spacing" textLength="187.6807" x="1536.8809" y="671.4092">IV. IMPACTO ESPERADO</text><rect fill="#F1F1F1" height="36.2969" rx="12.5" ry="12.5" style="stroke:#181818;stroke-width:1.5;" width="378.7432" x="1098.1377" y="563.9688"/><text fill="#000000" font-family="sans-serif" font-size="14" lengthAdjust="spacing" textLength="358.7432" x="1108.1377" y="586.9639">6.1. Otimiza&#231;&#227;o significativa do tempo de pesquisa</text><path d="M1526.8809,666.5625 L1516.8809,666.5625 C1501.8809,666.5625 1501.8809,582.1172 1486.8809,582.1172 L1476.8809,582.1172" fill="none" style="stroke:#181818;stroke-width:1;"/><rect fill="#F1F1F1" height="36.2969" rx="12.5" ry="12.5" style="stroke:#181818;stroke-width:1.5;" width="415.3633" x="1061.5176" y="620.2656"/><text fill="#000000" font-family="sans-serif" font-size="14" lengthAdjust="spacing" textLength="395.3633" x="1071.5176" y="643.2607">6.2. Empoderamento de estagi&#225;rios e jovens advogados</text><rect fill="#F1F1F1" height="36.2969" rx="12.5" ry="12.5" style="stroke:#181818;stroke-width:1.5;" width="399.9414" x="611.5762" y="592.1172"/><text fill="#000000" font-family="sans-serif" font-size="14" lengthAdjust="spacing" textLength="379.9414" x="621.5762" y="615.1123">6.2.1. Acesso r&#225;pido e compreens&#237;vel &#224; jurisprud&#234;ncia</text><path d="M1061.5176,638.4141 L1051.5176,638.4141 C1036.5176,638.4141 1036.5176,610.2656 1021.5176,610.2656 L1011.5176,610.2656" fill="none" style="stroke:#181818;stroke-width:1;"/><rect fill="#F1F1F1" height="36.2969" rx="12.5" ry="12.5" style="stroke:#181818;stroke-width:1.5;" width="314.0479" x="697.4697" y="648.4141"/><text fill="#000000" font-family="sans-serif" font-size="14" lengthAdjust="spacing" textLength="294.0479" x="707.4697" y="671.4092">6.2.2. Foco em an&#225;lises mais estrat&#233;gicas</text><path d="M1061.5176,638.4141 L1051.5176,638.4141 C1036.5176,638.4141 1036.5176,666.5625 1021.5176,666.5625 L1011.5176,666.5625" fill="none" style="stroke:#181818;stroke-width:1;"/><path d="M1526.8809,666.5625 L1516.8809,666.5625 C1501.8809,666.5625 1501.8809,638.4141 1486.8809,638.4141 L1476.8809,638.4141" fill="none" style="stroke:#181818;stroke-width:1;"/><rect fill="#F1F1F1" height="36.2969" rx="12.5" ry="12.5" style="stroke:#181818;stroke-width:1.5;" width="360.3203" x="1116.5605" y="676.5625"/><text fill="#000000" font-family="sans-serif" font-size="14" lengthAdjust="spacing" textLength="340.3203" x="1126.5605" y="699.5576">6.3. Acelera&#231;&#227;o do desenvolvimento profissional</text><path d="M1526.8809,666.5625 L1516.8809,666.5625 C1501.8809,666.5625 1501.8809,694.7109 1486.8809,694.7109 L1476.8809,694.7109" fill="none" style="stroke:#181818;stroke-width:1;"/><rect fill="#F1F1F1" height="36.2969" rx="12.5" ry="12.5" style="stroke:#181818;stroke-width:1.5;" width="470.666" x="1006.2148" y="732.8594"/><text fill="#000000" font-family="sans-serif" font-size="14" lengthAdjust="spacing" textLength="450.666" x="1016.2148" y="755.8545">6.4. (Potencial) Melhoria na qualidade da argumenta&#231;&#227;o jur&#237;dica</text><path d="M1526.8809,666.5625 L1516.8809,666.5625 C1501.8809,666.5625 1501.8809,751.0078 1486.8809,751.0078 L1476.8809,751.0078" fill="none" style="stroke:#181818;stroke-width:1;"/><path d="M1784.5615,413.2266 L1774.5615,413.2266 C1759.5615,413.2266 1759.5615,666.5625 1744.5615,666.5625 L1734.5615,666.5625" fill="none" style="stroke:#181818;stroke-width:1;"/><!--SRC=[RLPDS-964BthLqpj2QZr5woT5AV5mBf4m520kMwDfK6UhT6CF2EnJguvv3_a52U7hKsLJwdy0lsnl1w9hzWd9AQxv_Nhrztww79kyrJgEELPaCjS2ROILkRSiL5XfMCdRC8ppYP2vronM30P2ybT4BHOgxKQpiDbRy56T_Dm0TEUBf-LT8BDh8XbBZUSF7oWp1Pn-RUE96UHILdOOpT22yl9gDKA48y2XgTiDfzUZuUJ7kiFRvVptXY7BPnTd5wSihv9CoMUPCmHLh29iSPLBvgpcN2FXNHlNKaHgX08ScEvXid6g28LP8m0nh4lXIrVOXaPjxTkdxAnr4d14v6olFmUQHbnN1nLE0xYTW3ScaWuPrZATG6kf1Ph6KaGHrWpQpAXSShPcgi7xkgiS4MOPZpA3G98WCsusePj4zmXIfJ8yjbAW4HcPeCmh1TlJE9nDxY2RunqaMii3MMKYpGppNsODeM9KDRo7n-c4HKkD-uzymWhZjwpHw2ks8nH_bmuuPeroWvnhvruB2hZ7KSTWXZgWpX4Zu_EX18RWhYt1OwvT977Q5BfNFcNVvPwRMpAos_blyAn28N8GVI18-uVIDnHg6sroQ5Gv5A542w7cChl2S0nQ-u1mQlKgufaLVv-FGxxqvFUU3M5oCBRVZZRgQlpYcc474WhP6vg0s3_F_Vr2S0r5Y8gTEnzcmV54KyPkeaa0BApMg2niVJA8mvvfbvnWHBhd47BOWSPc1VJyLtvM_ahuPtEfejbhykEMgv6xtMoCElyAxVYTNkX8hFnRKLck-g1K2SWZAWJMzto530zbGCFVRJh1qWiWd1Yc0Esesnq-OsxvZuaoDdrFeIIYwUSMa2mXKZBFpLLqnjlhGb2Z41KqtqDFnDUUef01BJy-SY7xh19uM4wghydrSkKeIwH0A_SdO7mk7eyykuS8CHLb8NqeSuoexZrkj_d0-iRiBT35cedauUS6d1Hf33_fJuBaQkI2N5oS9sN4mnhBKK6ZU5y-rhV5AI78tDg3E4oGwB5X40EIQ7f6N-Ag7mXcXnpvXxrvJIgNayt2lJXJLgNuB9kMoetZwrli-sCDeTGFX3oTpZQI6hET-GFMAvysGXi0mYtK7arT-wv4tXY68tL17sGpWyOIAPv51BPOOc8hS8WI1g-DJw3T5IoLnzcrxRpoVlopPH23KuTtLVdrHZWXKQrT0_uEPjkXBM5mkCXb4lAhfT1eDnYPC8csHFZYgmgEP6perZGiTnDaXNWJ6Qz_dBAXelPSDuRJEiclABOKuXgfmr8HdlOrI8qrLZsZDQJe7QayOoJ6DVlQ137O_zBDNhuuUYfN2cZQk_OyZcJL12_dwo00vLDiVAFjoLpLNNL9nFvAlAwFnmsc7G74xKUnR3l-ClKlZK8Ate9zTnKxKIBRet9Besk5Xcy8Cl6pEIUIjN4juHwC1QR0cFySESmNhTt7NoxaNaGV8I4jryfmKoXWUucOtIzfNjenPstBq_RZMM11SarE_-1NPntEvVTpXMRB9QCZfj1usOsHWyLDXAqBtChxmlC6zqCHXm5cXT-97JP58jwDFXf-mSRwesqHXEoOBIQx0skFfnSonmppW89Mqs2WLXpz0Sy8XD3Urrsj_nqycCmvjL7H9S97VGDujgVkqmNIlq7]--></g></svg>